<?xml version="1.0" encoding="UTF-8"?>
<svg width="160px" height="35px" viewBox="0 0 160 35" version="1.1" xmlns="http://www.w3.org/2000/svg" xmlns:xlink="http://www.w3.org/1999/xlink">
    <!-- Generator: Sketch 41.2 (35397) - http://www.bohemiancoding.com/sketch -->
    <title>Group 2</title>
    <desc>Created with Sketch.</desc>
    <defs></defs>
    <g id="UI---B---Feed" stroke="none" stroke-width="1" fill="none" fill-rule="evenodd">
        <g id="B-3.0-Feed" transform="translate(-59.000000, -34.000000)">
            <g id="Header">
                <g id="Group-2" transform="translate(59.000000, 34.000000)">
                    <path d="M0.394389262,8.2718127 L0.394389262,4.85715594 L2.60069987,4.85715594 L2.60069987,3.59626831e-05 L7.16652212,3.59626831e-05 L7.16652212,4.85715594 L10.1658099,4.85715594 L10.1658099,8.2718127 L7.16652212,8.2718127 L7.16652212,15.1816826 C7.16652212,15.6729329 7.17587241,16.0703205 7.19529226,16.3745648 C7.21435248,16.6788091 7.2816027,16.9183206 7.40135844,17.0956166 C7.51859678,17.2718338 7.6984102,17.3951858 7.9451142,17.4635149 C8.19181821,17.531844 8.52699042,17.5663681 8.96070038,17.5663681 L9.40160287,17.5663681 C9.55732129,17.5663681 9.81589298,17.5473079 10.1658099,17.507749 L10.1658099,21.0400037 C9.75367754,21.0795627 9.40627802,21.113008 9.12109394,21.142857 C8.83842725,21.1716271 8.58237295,21.1921259 8.35688693,21.2014762 C8.12960277,21.2111861 7.92353659,21.220896 7.73904803,21.2316848 C7.55204208,21.2410351 7.35101068,21.2460699 7.13523458,21.2460699 C6.05491558,21.2460699 5.21662544,21.113008 4.61748714,20.8483226 C4.01870846,20.5836373 3.57313082,20.239834 3.28111383,19.8183514 C2.98406207,19.3965091 2.80173127,18.9200035 2.73484068,18.3906328 C2.6654327,17.8612621 2.62227748,17.3304529 2.60069987,16.8010823 L2.60069987,8.2718127 L0.394389262,8.2718127 Z M18.4941919,5.82840012 C18.5517322,5.75072073 18.6473929,5.64139417 18.7721834,5.5036571 C18.9012895,5.36735853 19.0882954,5.22458667 19.332482,5.0774993 C19.5770283,4.9300523 19.8884651,4.80310403 20.2596,4.69521598 C20.6310945,4.58768756 21.0957324,4.53230503 21.6420055,4.53230503 C21.8193016,4.53230503 21.9725026,4.53841868 22.0994509,4.54812861 C22.2263991,4.5574789 22.35083,4.57186398 22.468428,4.59236271 L22.468428,8.74245634 C22.3101922,8.70289738 22.1688588,8.67916201 22.0393932,8.66837321 C21.9124449,8.65866328 21.7329911,8.65398813 21.4981548,8.65398813 C21.0428672,8.65398813 20.6573473,8.68383716 20.3340428,8.74245634 C20.0082208,8.80107551 19.7302293,8.88522819 19.495393,8.99275661 C19.2609163,9.10064466 19.0642004,9.22399666 18.9063242,9.36065486 C18.7480884,9.49839193 18.6114302,9.64547931 18.4941919,9.80263623 L18.4941919,5.82840012 Z M13.0778522,20.8111732 L17.6986973,20.8111732 L17.6986973,4.8858182 L13.0778522,4.8858182 L13.0778522,20.8111732 Z M24.3887633,10.0085586 C24.5085191,8.16403254 25.1554878,6.78054812 26.3339849,5.85702642 C27.5099646,4.93494323 29.1390742,4.47390163 31.2205943,4.47390163 C32.0829794,4.47390163 32.9406894,4.5526599 33.7933646,4.70981683 C34.6485572,4.86661413 35.417799,5.20070745 36.1075633,5.71101793 C36.5962961,6.06309259 36.9796583,6.44177965 37.2526151,6.84420207 C37.5280892,7.24662449 37.7341554,7.66810714 37.8708136,8.10900964 C38.0096296,8.55099101 38.0909052,9.00232268 38.1221928,9.46372391 C38.1534803,9.9247655 38.1772157,10.371422 38.1962759,10.8026146 L38.1962759,17.6610579 C38.1962759,18.0347102 38.2013107,18.3626898 38.210661,18.6478739 C38.2203709,18.9316195 38.2444659,19.1916297 38.2825863,19.4275449 C38.3232242,19.6634601 38.3832818,19.8889461 38.4598824,20.1043626 C38.5390003,20.3212176 38.6468883,20.546344 38.7857043,20.7811803 L33.9562756,20.7811803 C33.8390372,20.506785 33.7552442,20.2216009 33.7074138,19.9281454 C33.657066,19.6336111 33.6232611,19.1330105 33.6042009,18.4263438 L33.6042009,10.3020141 C33.6042009,10.086238 33.5923332,9.8456476 33.573273,9.58096225 C33.5538531,9.31627691 33.4725775,9.06597663 33.3240516,8.83114031 C33.1755257,8.59522511 32.9406894,8.39886886 32.6173849,8.24171194 C32.2940803,8.08491464 31.8290829,8.00579673 31.2205943,8.00579673 C31.1008385,8.00579673 30.8947723,8.02162032 30.6027554,8.05039046 C30.3057036,8.08023949 30.013327,8.15935739 29.7187926,8.28630566 C29.4242582,8.41433281 29.1631692,8.60961018 28.9376831,8.87429553 C28.7125567,9.14005976 28.5906432,9.51730831 28.5712234,10.0085586 L24.3887633,10.0085586 Z M32.9263043,13.5994325 C32.8281262,13.6389914 32.6436376,13.6832255 32.3656461,13.7310559 C32.0926893,13.7814036 31.8028301,13.8400228 31.4985858,13.9083519 C31.1943415,13.9777599 30.9044823,14.0414138 30.6315255,14.100033 C30.3560514,14.1586522 30.1596951,14.1982111 30.0420971,14.217631 C29.4145483,14.3934885 28.933008,14.6200534 28.5999935,14.8940891 C28.2648213,15.1695632 28.099393,15.5611968 28.099393,16.0715073 C28.099393,16.5828967 28.2838816,16.995029 28.6575338,17.3075447 C29.0311861,17.6225778 29.5512065,17.7797347 30.2193932,17.7797347 C30.5117698,17.7797347 30.9091574,17.7304659 31.4122754,17.6322877 C31.9107181,17.5341096 32.4159938,17.2884845 32.9263043,16.895772 C32.868764,17.4262216 32.8399939,17.936532 32.8399939,18.4263438 C32.8399939,18.484963 32.8425113,18.6036398 32.8543789,18.779857 C32.8640889,18.9567934 32.8737988,19.1376857 32.8831491,19.3246916 C32.892859,19.5113379 32.9022093,19.6922302 32.9119192,19.8695263 C32.9216292,20.0457434 32.9263043,20.1629818 32.9263043,20.2216009 C32.5717123,20.4970751 32.1955426,20.7128512 31.7931202,20.8696485 C31.3906977,21.0268054 31.0005026,21.1393686 30.6171404,21.2087766 C30.2337782,21.2771057 29.8982464,21.3166646 29.6155797,21.3260149 C29.3307553,21.3357249 29.1293642,21.3404 29.0121259,21.3404 C28.2648213,21.3404 27.5603124,21.2278368 26.8921257,21.0027104 C26.2235794,20.777584 25.6417032,20.4434907 25.1411027,20.0015093 C24.6401425,19.5606068 24.2427549,19.0251225 23.9478609,18.3975736 C23.6558439,17.7700248 23.507318,17.0428594 23.507318,16.2189543 C23.507318,15.2774513 23.6795792,14.5121654 24.0223036,13.922737 C24.3646684,13.3347471 24.7814758,12.8629167 25.2752435,12.5104824 C25.7636167,12.1573289 26.2739272,11.8973187 26.8032979,11.7297326 C27.335186,11.5632253 27.7854388,11.4409522 28.1594507,11.3621939 C28.3148095,11.322635 28.6190538,11.2636562 29.0696662,11.1859768 C29.5224364,11.1068589 29.9989419,11.0230658 30.4973847,10.9356765 C31.0005026,10.8468487 31.4795256,10.7583805 31.9394883,10.6709912 C32.4016088,10.5821634 32.7299481,10.518869 32.9263043,10.4793101 L32.9263043,13.5994325 Z M48.0563086,12.9226867 L50.3798575,4.85697613 L55.2092862,4.85697613 L50.1450212,19.8099001 L48.0563086,12.9226867 Z M39.9021298,4.85697613 L44.759969,4.85697613 L49.646938,20.8111012 L45.4357079,20.8111012 L39.9021298,4.85697613 Z M72.0160866,16.1602272 C71.9179084,16.4357014 71.7668652,16.7831009 71.560799,17.2045836 C71.3550924,17.6275047 71.0436556,18.0932215 70.6315233,18.6035319 C69.8673162,19.5259747 68.930848,20.1977577 67.8213992,20.6195999 C66.7123101,21.0410826 65.5600657,21.2529028 64.3650257,21.2529028 C63.0088729,21.2529028 61.8206659,21.0266975 60.8004046,20.5750062 C59.7797836,20.1247534 58.9317836,19.5162648 58.2564044,18.7509789 C57.5785078,17.985693 57.0681973,17.098134 56.7233152,16.087223 C56.3805908,15.076312 56.2104873,14.0114569 56.2104873,12.8926579 C56.2104873,11.6566204 56.4068436,10.5187611 56.7999157,9.47800109 C57.1904705,8.43831992 57.7486113,7.5399721 58.4768556,6.78547501 C59.2000652,6.02953941 60.0696429,5.44047066 61.0805539,5.01862839 C62.0914649,4.59714574 63.2055888,4.38640442 64.4222064,4.38640442 C65.8355398,4.38640442 67.0334568,4.65576492 68.0130803,5.19484554 C68.9930634,5.73500504 69.7691381,6.39743766 70.3391466,7.18178378 C71.0436556,8.1243657 71.5320288,9.20360582 71.7956353,10.420583 C72.0592418,11.6375602 72.1933826,12.8833076 72.1933826,14.1589039 L61.7728355,14.1589039 C61.7152952,13.8845087 61.6746574,13.6244985 61.6555972,13.3788733 C61.6340196,13.1336078 61.6149594,12.8437486 61.5955395,12.5107342 C61.5955395,12.1766408 61.6052494,11.8723965 61.6243097,11.5980013 C61.6437295,11.3225271 61.6937176,11.0290716 61.7728355,10.7140385 L67.4240116,10.7140385 C67.3448937,10.3019062 67.2441981,9.96421657 67.1147325,9.69953122 C66.9877842,9.43376699 66.875221,9.22410455 66.7770429,9.06586874 C66.5015687,8.7127152 66.1520115,8.43831992 65.7301692,8.24196367 C65.3086865,8.04560742 64.853399,7.9474293 64.3650257,7.9474293 C63.950376,7.9474293 63.5288933,8.02151243 63.0977008,8.16895943 C62.6639908,8.31496792 62.283146,8.57138185 61.9501316,8.93424532 C61.6149594,9.2971088 61.341643,9.77757024 61.1262265,10.3763489 C60.9104504,10.9751276 60.8004046,11.7249495 60.8004046,12.6279725 C60.8004046,13.1969022 60.8601026,13.7755417 60.9777006,14.3649701 C61.0974563,14.95296 61.2912952,15.4834095 61.5667694,15.9541611 C61.8400857,16.4249126 62.2184132,16.8129499 62.6999535,17.1171942 C63.1814938,17.4214385 63.7755974,17.5735607 64.4797467,17.5735607 C64.9925745,17.5735607 65.4237671,17.5041527 65.7758418,17.3674945 C66.1279165,17.2297574 66.4202931,17.0632502 66.6454195,16.866894 C66.8705459,16.6705377 67.0431667,16.4741815 67.1578877,16.2774656 C67.2776434,16.0825478 67.3639539,15.9351008 67.4240116,15.8369227 L72.0160866,16.1602272 Z M74.7228898,20.8109933 L79.2638978,20.8109933 L79.2638978,0.000107888049 L74.7228898,0.000107888049 L74.7228898,20.8109933 Z M87.9763972,5.1804245 C88.3691097,5.00420735 88.8053371,4.8319461 89.2868774,4.66543888 C89.7680581,4.49893166 90.3718716,4.4151386 91.0975985,4.4151386 C92.2163976,4.4151386 93.1913459,4.63558985 94.0274783,5.07757123 C94.8610933,5.5195526 95.5605675,6.1132965 96.130576,6.85844329 C96.7009442,7.60466897 97.127102,8.47316776 97.4097686,9.46358006 C97.6949527,10.4539923 97.8362861,11.4997872 97.8362861,12.5980875 C97.8362861,13.7755058 97.6949527,14.8943048 97.4097686,15.9541251 C97.127102,17.014305 96.7009442,17.941423 96.130576,18.735479 C95.5605675,19.5306139 94.8564181,20.1581628 94.0130932,20.619564 C93.1676105,21.0806056 92.1876274,21.3118456 91.0666706,21.3118456 C90.2042855,21.3118456 89.5238715,21.1884936 89.0207536,20.9439474 C88.5226704,20.6983223 88.1727535,20.5070008 87.9763972,20.3692637 L87.9763972,16.6607918 C88.1536933,16.8175891 88.3932047,16.9984814 88.6999664,17.2045476 C89.0016933,17.4106138 89.4375611,17.5138267 90.0079292,17.5138267 C90.6545383,17.5138267 91.1911015,17.3627834 91.6129438,17.0585391 C92.0344264,16.7542948 92.3624061,16.3565475 92.5997598,15.8656569 C92.8345961,15.3758452 93.0021822,14.8259757 93.0978429,14.2174871 C93.1985385,13.6089985 93.2463688,13.0102199 93.2463688,12.4218704 C93.2463688,12.0100976 93.2032136,11.5094971 93.112228,10.9200687 C93.0262772,10.3320789 92.796116,9.78220943 92.4224638,9.27189896 C92.2261075,8.99750368 91.9506334,8.73785311 91.5985587,8.49222799 C91.2439666,8.24660286 90.774294,8.12432974 90.1852252,8.12432974 C89.5573168,8.12432974 89.0757765,8.22754264 88.7431216,8.43360881 C88.4075898,8.63967499 88.1536933,8.82164616 87.9763972,8.97736458 L87.9763972,5.1804245 Z M82.6488854,20.8108855 L87.2409604,20.8108855 L87.2409604,7.10542736e-15 L82.6488854,7.10542736e-15 L82.6488854,20.8108855 Z M108.405251,17.5735607 C108.659148,17.513503 108.970584,17.4167634 109.332369,17.2790263 C109.694154,17.1412892 110.043711,16.9064529 110.379243,16.5723596 C110.70974,16.2393451 111.002116,15.76248 111.246303,15.1446411 C111.49049,14.5264425 111.61528,13.6975027 111.61528,12.6567427 C111.61528,11.2254279 111.334771,10.1210139 110.77663,9.34637767 C110.216332,8.57138185 109.425872,8.1243657 108.405251,8.00604847 L108.405251,4.35655539 C109.876125,4.43531367 111.112162,4.74459274 112.113363,5.28331374 C113.114924,5.82347324 113.924444,6.49094063 114.542643,7.28499668 C115.160482,8.0801316 115.601384,8.9486304 115.867148,9.89013344 C116.133272,10.8327154 116.264896,11.7547986 116.264896,12.6567427 C116.264896,13.7169225 116.104502,14.7432975 115.77868,15.7337098 C115.455376,16.7244817 114.9688,17.6177948 114.322191,18.4118508 C113.675223,19.2073454 112.861028,19.8647432 111.878887,20.3847636 C110.896746,20.9044244 109.739467,21.2137035 108.405251,21.3118816 L108.405251,17.5735607 Z M107.638527,21.3118816 C106.402489,21.2529028 105.348423,21.0364074 104.476688,20.663834 C103.602435,20.2912606 102.871673,19.8395693 102.282245,19.3101987 C101.693176,18.7797491 101.228178,18.1964344 100.883296,17.5580967 C100.540932,16.920838 100.279842,16.2979643 100.104704,15.6894757 C99.9274082,15.0809871 99.814845,14.5217674 99.7670146,14.0114569 C99.7166669,13.5011465 99.6929315,13.1095128 99.6929315,12.8340387 C99.6929315,11.7547986 99.8533251,10.7248273 100.179147,9.74268644 C100.502452,8.76162445 100.993702,7.8884505 101.650021,7.1231646 C102.30634,6.35787871 103.130245,5.73032989 104.122096,5.23907964 C105.113946,4.74926789 106.287768,4.45473352 107.638527,4.35655539 L107.638527,8.00604847 C106.814622,8.1243657 106.177363,8.39408582 105.72711,8.81556847 C105.276857,9.23848962 104.946001,9.70924114 104.740294,10.2289019 C104.534228,10.7489223 104.41663,11.2495229 104.38786,11.7296247 C104.356932,12.211165 104.342547,12.5693533 104.342547,12.8041897 C104.342547,13.8449497 104.472012,14.6738895 104.725909,15.2917284 C104.979806,15.909927 105.286208,16.3806785 105.638282,16.7050619 C105.990717,17.028726 106.354659,17.2441425 106.728311,17.3520306 C107.101963,17.4609975 107.40405,17.5340017 107.638527,17.5735607 L107.638527,21.3118816 Z M126.802681,17.5735607 C127.056577,17.513503 127.368014,17.4167634 127.729799,17.2790263 C128.091583,17.1412892 128.441141,16.9064529 128.776673,16.5723596 C129.10717,16.2393451 129.399546,15.76248 129.643733,15.1446411 C129.887919,14.5264425 130.01271,13.6975027 130.01271,12.6567427 C130.01271,11.2254279 129.732201,10.1210139 129.17406,9.34637767 C128.613762,8.57138185 127.823302,8.1243657 126.802681,8.00604847 L126.802681,4.35655539 C128.273555,4.43531367 129.509592,4.74459274 130.510793,5.28331374 C131.512354,5.82347324 132.321874,6.49094063 132.940072,7.28499668 C133.557911,8.0801316 133.998814,8.9486304 134.264578,9.89013344 C134.530702,10.8327154 134.662325,11.7547986 134.662325,12.6567427 C134.662325,13.7169225 134.501932,14.7432975 134.17611,15.7337098 C133.852805,16.7244817 133.36623,17.6177948 132.719621,18.4118508 C132.072652,19.2073454 131.258457,19.8647432 130.276316,20.3847636 C129.294176,20.9044244 128.136896,21.2137035 126.802681,21.3118816 L126.802681,17.5735607 Z M126.035957,21.3118816 C124.799919,21.2529028 123.745853,21.0364074 122.874117,20.663834 C121.999865,20.2912606 121.269103,19.8395693 120.679674,19.3101987 C120.090606,18.7797491 119.625608,18.1964344 119.280726,17.5580967 C118.938361,16.920838 118.677272,16.2979643 118.502134,15.6894757 C118.324838,15.0809871 118.212275,14.5217674 118.164444,14.0114569 C118.114097,13.5011465 118.090361,13.1095128 118.090361,12.8340387 C118.090361,11.7547986 118.250755,10.7248273 118.576577,9.74268644 C118.899881,8.76162445 119.391132,7.8884505 120.047451,7.1231646 C120.703769,6.35787871 121.527675,5.73032989 122.519525,5.23907964 C123.511376,4.74926789 124.685198,4.45473352 126.035957,4.35655539 L126.035957,8.00604847 C125.212051,8.1243657 124.574793,8.39408582 124.12454,8.81556847 C123.674287,9.23848962 123.34343,9.70924114 123.137724,10.2289019 C122.931658,10.7489223 122.81406,11.2495229 122.78529,11.7296247 C122.754362,12.211165 122.739977,12.5693533 122.739977,12.8041897 C122.739977,13.8449497 122.869083,14.6738895 123.123339,15.2917284 C123.377235,15.909927 123.683637,16.3806785 124.035712,16.7050619 C124.388146,17.028726 124.752089,17.2441425 125.125741,17.3520306 C125.499393,17.4609975 125.80148,17.5340017 126.035957,17.5735607 L126.035957,21.3118816 Z M142.610582,9.41927403 L146.670769,4.85704805 L152.558939,4.85704805 L145.789323,11.5094252 L153.031129,20.8111732 L147.231427,20.8111732 L142.610582,14.5709284 L142.610582,9.41927403 Z M137.223012,20.8111732 L141.786317,20.8111732 L141.786317,0.0290578479 L137.223012,0.0290578479 L137.223012,20.8111732 Z M155.050218,0.626937454 L155.899297,0.626937454 L155.899297,0.0288780345 L155.050218,0.0288780345 L155.050218,0.626937454 Z M154.201139,3.25149407 L154.931541,3.25149407 L154.931541,0.0288780345 L154.201139,0.0288780345 L154.201139,3.25149407 Z M153.242733,0.626937454 L154.087497,0.626937454 L154.087497,0.0288780345 L153.242733,0.0288780345 L153.242733,0.626937454 Z M158.930232,3.25149407 L159.605611,3.25149407 L159.605611,0.0288780345 L158.930232,0.0288780345 L158.930232,3.25149407 Z M157.118072,1.50766356 L157.118072,0.0288780345 L157.33241,0.0288780345 C157.396063,0.275222414 157.460077,0.518689778 157.524091,0.759280128 C157.587745,0.999510851 157.654995,1.24333784 157.725122,1.48968222 C157.758567,1.61447273 157.786618,1.71876451 157.809275,1.80219794 C157.832291,1.88599099 157.85243,1.96295113 157.868613,2.03271874 C157.885875,2.10284597 157.90062,2.17189432 157.914645,2.24022342 C157.927952,2.30891214 157.944135,2.3887493 157.962116,2.48009451 C157.980817,2.39486296 157.996281,2.31718356 158.010666,2.24705633 C158.023972,2.17728872 158.039796,2.10356522 158.058136,2.02588583 C158.076477,1.94820643 158.097336,1.86225562 158.12179,1.76803339 C158.146605,1.67381116 158.176813,1.55980945 158.213495,1.42566865 C158.274272,1.19119195 158.33433,0.958513393 158.394028,0.72727334 C158.453366,0.496033288 158.513064,0.263354728 158.573841,0.0288780345 L158.811195,0.0288780345 L158.811195,1.4760164 L158.327857,3.25149407 L157.60177,3.25149407 L157.118072,1.50766356 Z M156.318981,3.25149407 L156.999395,3.25149407 L156.999395,0.0288780345 L156.318981,0.0288780345 L156.318981,3.25149407 Z" id="Combined-Shape" fill="#FFF"></path>
                    <path d="M122.924,35 L126.512,35 C128.156,35 129.044,34.16 129.044,32.72 C129.044,31.628 128.48,30.98 127.508,30.752 C128.12,30.452 128.492,29.864 128.492,29.024 C128.492,27.524 127.592,26.84 126.044,26.84 L122.924,26.84 L122.924,35 Z M124.7,31.652 L126.152,31.652 C126.896,31.652 127.208,32 127.208,32.612 C127.208,33.164 126.944,33.5 126.248,33.5 L124.7,33.5 L124.7,31.652 Z M124.7,28.34 L125.804,28.34 C126.452,28.34 126.704,28.616 126.704,29.18 C126.704,29.732 126.428,30.056 125.768,30.056 L124.7,30.056 L124.7,28.34 Z M139.052,35 L139.052,33.452 L135.14,33.452 L135.14,31.58 L138.308,31.58 L138.308,30.068 L135.14,30.068 L135.14,28.4 L139.052,28.4 L139.052,26.84 L133.436,26.84 L133.436,35 L139.052,35 Z M148.784,28.4 L148.784,26.84 L142.868,26.84 L142.868,28.4 L144.968,28.4 L144.968,35 L146.744,35 L146.744,28.4 L148.784,28.4 Z M152.156,35 L153.92,35 L154.388,33.404 L157.268,33.404 L157.724,35 L159.488,35 L156.884,26.84 L154.82,26.84 L152.156,35 Z M155.852,28.604 L156.836,32.096 L154.82,32.096 L155.852,28.604 Z" id="BETA" fill="#383E39"></path>
                </g>
            </g>
        </g>
    </g>
</svg>